<?xml version="1.0" encoding="UTF-8"?>
<svg id="Layer_1" xmlns="http://www.w3.org/2000/svg" version="1.1" viewBox="0 0 595.28 841.89">
  <!-- Generator: Adobe Illustrator 30.2.1, SVG Export Plug-In . SVG Version: 2.1.1 Build 1)  -->
  <path d="M362.07,324.15c.88.31-10.54,6.49-11.21,7.68,4.8-1.98,9.41-4.18,13.45-7.22l5.86-4.42c23.84-17.97,73.07-41.99,103.24-39.26,6.54.59,14.36,3.63,15.6,10.78.62,3.6-.73,6.59-2.37,10.17,11.81-4.83,40.83-16.07,51.13-7.7,5.05,4.1,1.66,8.73,4.34,7.21,7.07-4.01,4.32-5.15,14.48-4.51l-17.51,11.65c-3.39,4.92-6.52,10.02-10.88,14.33l-5.61,5.55c-6.78,6.71-14.14,12.45-21.98,17.9-1.44,1-2.63,2.18-3.47,3.71-2.66,4.87-5.69,9.33-8.14,14.81,22.84-14.4,45.67-27.13,69.52-38.75.24-.12.72-.57.74-.39l.11,1.06c-18.97,9.59-37.75,19.43-55.95,30.55l-14.23,8.7c-1.38.84-2.38,1.85-3.23,3.25-3.6,5.92-7.36,11.64-11.96,16.81l-3.1,3.49c-3.1,3.48-8.2,8.08-12.25,10.37-2.34,1.32-7.51,3.23-9.29,1.13-3.99-4.7,8.01-14.14,11.41-16.78,8.27-6.41,16.84-12.14,25.67-17.69l2.39-4.18,6.7-11.71c-.04-.11-.38-.41-.45-.37-8.51,5.83-16.92,11.24-25.87,16.37-16.08,9.22-32.4,17.59-49.53,24.72-21.66,9.01-77.95,30.21-95.67,8.5-3.45-4.23-4.42-9.52-4.25-15.1-16.17,2.51-28.13,4.85-44.44,4.6l-4.56-.07c-.11-.29-.26-.66-.23-.59l6.75-.14,5.6-.33c12.52-.74,24.75-2.64,37.07-4.85,1.43-10.47,7.41-20.48,13.36-28.38.12-.15.19-.64.08-.61-.11.04-.51.17-.62.24l-3.36,2.05c-2.53.3-4.75.65-7.4-.2l16.73-10.41c2.46-1.53,4.81-2.88,6.82-4.96,2.55-2.65,5.06-5.16,7.84-7.53l4.2-3.59-.19-.36-8.29,4.32-11.28,6.07-26.94,16.57-6.74.08-.04-.73,3.92-2.52c.47-.26.31-.32-.24-.4-4.32,2.02-14.24,5.53-18.18,2.29-.64-.52-.84-2.3-.38-3.02l2.79-4.32c-3.8,1.63-19.98,12.07-22.65,7.45-2.21-3.83,8.04-10.25,10.83-11.98l20.58-12.75c.76-.47,6.34-4.39,5.1-5.19-1.47-.95-7.08,1.86-8.88,2.79l-13.11,6.84-9.15,4.98-26.83,16.3c-2.35.36-4.68.43-7.29-.21l8.79-5.65c.46-.46.37-.45-.25-.28-.96.18-1.83.38-2.69.76-7.54,3.34-15.55,5.39-23.82,5.65-2.04.06-3.84-.31-5.26-1.72l-16.38,10.17-29.12,17.99c-1.26.78-3.92-.23-5.77.82-11.35,6.49-22.87,12.19-35.07,16.84l-.24.71c13.02.16,29.5-4.49,42.14-8.33,17.29-5.24,34.38-11.89,50.35-20.01.34-.17.65-.26.76-.28s.11.35.01.41l-.48.31c-.94.61-1.86,1.26-2.89,1.8-18.65,9.87-39.31,16.82-59.71,22.39-11.38,3.1-22.69,5.01-34.38,4.97-7.31,2.09-14.15,4.62-21.71,5.76-11.13,1.68-22.65,1.7-32.36-4.67-3.94-2.58-6.67-6.07-8.53-10.48-9.81,2.98-20.18,5.44-29.55,1.48-9.99-4.22-10.27-15.79-7.32-24.51,1.37-4.06,3.06-7.74,5.35-11.41,6.12-9.81,13.72-18.33,22.38-26.05,9.49-8.46,19.6-15.95,30.61-22.45,16.59-9.79,33.77-18.2,51.55-25.61,11.06-4.61,22.11-8.51,33.67-11.49,5-1.29,9.77-2.49,14.96-2.33-11.83,2.36-23.37,5.47-34.83,9.77-21.66,8.12-42.66,17.91-62.7,29.49-15.25,8.81-29.3,19.45-41.38,32.1-5.39,5.64-9.89,11.61-13.91,18.18s-7.4,15.9-5.84,23.77c.88,4.43,3.83,7.87,7.97,9.57,9.17,3.77,19.3,1.42,28.69-1.61-5.69-19.77,11.49-40.76,25.09-53.03,10.24-9.24,21.5-17.04,34.09-22.8,8.3-3.8,16.8-6.12,25.71-7.98,17.83-15.39,42.31-26.08,65.22-30.59,9.21-1.81,20.92-.75,27.41,6.52,2.76,3.09,4.07,7,5.05,10.9l.68.28c6.26-2.64,12.53-4.78,19.27-5.95,5.3-.92,16.93-2.4,21.07,1.44,2.08,1.93,1.39,4.2.49,6.36l-.19.46c-.03.08.37.31.72.25,14.36-2.48,30.4-5.08,45.02-6.33l6.81-.58,2.44-.2c1.95-.16,4.01-.13,6.13-.12.66.17.71.22.03.23l-3.37.32-4.59.35-3.3.3-3.93.5-38.04,5.42-9.11,1.73c-4.26,3.59-5.68,5.48-11.04,7.95s-10.41,3.99-16.05,4.18c-11.07.36-9.4-4.65-13.95-3.43l-19.55,5.23c-.81.22-1.41,1.35-1.13,1.92,1.89-.17,8.29-.48,8.52,1.98.05.53-.43,1.53-.92,1.91-3.32,2.6-7.45,3.04-11.48,2.08-1.9-.45-3.32-1.34-3.9-3.44-1.84.29-3.57.53-5.3,1.06-5.87,1.81-11.61,3.39-17.38,5.54-16.25,6.07-30.04,12.61-44.47,22.18-6.1,4.04-11.45,8.34-16.83,13.33-2.48,2.3-5.3,5.88-6.66,8.25-.15.27-.09.93.03.89s.62-.18.74-.29c2.85-2.52,6.56-5.5,9.9-7.86,18.24-12.88,41.88-26.02,63.31-32.2,4.74-1.37,9.35-2.21,14.19-2.83,1.63-.21,3.16-.41,4.76-.83l34.25-8.99c11.26-2.96,22.4-4.81,34.13-6.56.9.23.28.31-.33.42l-12.15,2.41-31.7,7.29-20.18,5.46c-4.51,1.22,7.27-.29,5.67,6.11-1.26,5.02-11.71,12.07-16.08,15-3.04,2.05-6.02,3.71-9.2,5.52l-5.87,3.35c-2.01,1.15-4.05,1.98-6.14,2.97l-5.57,2.64c-2.33,1.11-4.57,2.16-6.97,3.14l-5.13,2.1c-5.32,2.18-10.55,3.92-16.1,5.52-11.76,3.38-19.62,4.59-31.92,3.57l-5.75,6.12c-2.23,2.37-3.87,5.08-5.32,8.04s-1.11,6.63,1.11,8.98c2.53,2.68,9.24,3.46,11.3,2.71,12.58-4.58,24.41-10.35,36.12-16.8.64-.35,1.14-1.12,1.64-1.74l94.46-58.6c.03-.15,9.37-.61,6.99.47l-2.21,1.45-.46.3c-.08.06-.06.11.04.15,1.07.43,6.32-3.23,11.44-2.54.85.11,1.66.31,1.9.73,1.52,2.59-3.66,6.99-5.62,8.65-10.56,8.93-23.93,15.46-36.89,20.36-.43.16-.71.24-.23.55,9.11-2.51,18.07-5.44,26.11-10.43l72.19-44.82c1.06-.66,2.16-1.83,3.29-1.99,2.44-.35,4.86-.41,7.47.19l-35.75,22.25-18.16,11.34c6.14-1.91,12.08-7.27,18.78-7.13.99.02,2.18.7,2.48,1.41,1.24,2.93-4.66,7.18-6.92,8.6l-25.92,16.22c-1.17.73-5.35,3.91-4.42,4.86,1.23,1.26,9.72-3.2,11.34-4.15,3.76-2.2,7.79-3.52,11.27-6.17,11.12-8.45,23.15-15.23,36.63-19.28,3.23-.97,6.82-1.72,9.97-.84,1.25.35.4,2.73-.27,3.36-5.28,4.98-19.22,11.49-25.25,12.83l-10.39,2.3c-2.18.48-13.43,8.95-11.27,11.33,1.22.81,3.13.64,4.63.25,7.4-1.9,14.32-4.87,20.82-8.96l33.13-20.83c1.35-.85,3.03-.63,4.61-.62h2.58c.15,0,.61.19.73.23ZM171.09,326.05c.34-.15,1.18.11,1.14.41-.03.24-.36.84-.61.97-3.43,1.83-7.08,3.98-10.28,6.29-1.81,1.31-3.95,2.08-5.05,4.01,14.15-7.16,27.97-12.67,42.68-17.12l19.06-5.78c6.24-8.2,17.03-14.09,26.5-17.98-1.47-7.48-5.14-13.19-12.3-15.78-2.04-.74-4.19-1.39-6.34-1.49-10.4-.47-14.93.78-24.57,3.91-15.6,5.07-32.71,12.64-45.83,23.64,7.34-.9,17.3-2.32,23.19-.05-2.06,1.01-3.53-.48-5.19-.45-6.79.15-13.43.88-20.05,2.24-2.86,1.79-5.24,4.36-7.64,6.69-3.09,2.99-5.78,6.21-7.42,10.14-1.07,2.55.06,5.2,2.64,6.17,7.81,2.96,22.46-2.58,30.07-5.84ZM370.95,352.08l2.62-3.87-12.89,6.53c-1.9.96-8.83,3.54-9.86.52-1.19-3.51,6.67-8.91,9.38-10.6l11.3-7.02,11.72-7.26c1.14-.71,5-3.45,4.28-4.88s-10.86,3.99-12.36,4.76c-9.3,4.79-18.31,9.44-27.13,15.08-12.85,8.22-10.58,4.73-19.76,19.34-3.39,5.4-5.61,11.11-6.93,17.29-.05.23.08.8.19,1,.08.15.7.15.88.11l24.9-5.58c18.72-4.19,41.53-12.51,59.08-20.55-4.38-3.51,4.11-9.63,6.44-11.08l18.17-11.27c2.94-1.82,10.36-5.91,10.13-9.47-5.66,2.64-8.16,4.89-13.55,7.44l-2.72,1.29c.72-.98,1.58-1.29,2.54-1.86l5.2-3.05c3.14-1.85,6.97-3.08,9.55-5.67,2.34-2.35,4.35-4.56,7.27-6.24,1.78-1.02,8.05-5.24,9.23-2.16,8.55-4.46,16.99-8.46,25.95-12.09,2.11-2.78,3.46-6.27,3.34-9.8-.17-5.08-4.89-8.61-9.32-9.85-10.74-3.01-24.08-.24-34.83,2.58-12.69,3.34-24.67,8.13-36.48,13.87-14.01,6.82-27.2,14.48-39.83,24.1l4.31.37c1.77.78,1.34,3.28.16,4.53l-4.07,4.3,13.36-6.84c2.44-1.25,9.92-4.16,11.12-1.04s-4.76,7.42-7.24,8.97l-25.94,16.19c-.9.56-4.89,3.63-3.83,4.54,1.36,1.17,9.81-3.27,11.62-4.29,3.63-2.05,7.45-3.47,10.78-5.92,4.97-3.66,9.62-7.25,15.06-10.17,6.38-3.43,12.61-6.44,19.53-8.6,2.22-.69,10.94-3.18,12.27-1.56.94,1.14.25,2.86-.72,3.7-6.14,5.29-14.05,8.58-21.68,11.44-4.59,1.72-9.23,2.76-14.07,3.15l-5.99,4.51c-1.34,1.01-6.21,5.21-4.96,6.9,2.83,3.83,23.15-6.94,27.05-9.09l12.86-7.09c2.6-1.43,5.05-2.82,7.85-3.97-2.81,1.94-5.66,3.54-8.62,5.22l-2.73,1.56c-9.11,5.2-31.08,18.94-41.12,15.65-1.78-.59-2.29-2.42-1.51-4.08ZM285.22,298.55c1.59-.47,1.92-3.84,1.15-4.92-1.06-1.48-3-2.2-4.77-2.41-12.05-1.45-23.85,2.34-34.67,7.73-.15,2.71.65,5.19,2.12,7.52l21-4.81c5.09-1.17,10.04-1.59,15.17-3.11ZM487.12,323.9c2.02-1.06,4.68-.52,7.13.18l-34.32,21.18c-1.63,1-12.99,7.71-11.73,9.39.86.5,2.36.32,3.34-.17l14.84-7.43,18.72-10.44,54.41-33.71c1.1-4.23-1.22-7.97-5.27-9.41-12.37-4.39-35.1,4.71-47.29,9.45-.79.31-1.84.95-2.26,1.54-5.81,8.09-13.09,14.17-20.91,20.1-3.01,2.28-5.98,4.11-8.94,6.62l13.53-5.37c2.28-.9,11.94-3.71,12.94-1.09.18.46.05,1.38,0,2.2l5.81-3.04ZM246.5,307l-1.73-7.06c-2.93,1.14-15.88,9.78-16.44,11.59-.03.09.45.19.71.13l17.46-4.65ZM262.56,310.44c7.78-.84,14.89-4.17,20.84-9.08.15-.12.45-.8.28-.89-1.08-.62-29.59,5.92-33.43,7.04,1.55,3.38,9.56,3.23,12.32,2.93ZM410.15,354.94c2.66-1.11,5.17-2.44,7.66-3.72l9.98-5.12c14.4-7.39,46.09-27.29,55.09-41.31-12.89,5.12-24.62,11.37-36.54,17.72-1.26.67-2.71,1.42-3.08,2.74-1.16,4.13-1.3,7.02-5.7,9.8l-19.41,12.29c-1.25.79-10.62,6.04-8.01,7.6ZM517.31,328.4c-2.4.37-4.69.91-6.52,2.65-4.17,3.97-7.8,8.44-10.34,13.95,5.52-3.73,10.48-7.49,15.25-11.76l4.31-3.86c5.43-5.5,13.26-12.28,16.56-19.69l-25.71,15.86-26.85,16.59-10.34,6.42c-.78.48-7.86,5.19-6.38,6.14,1.69,1.08,10.15-3.44,12.27-4.59l20.2-10.89c1.55-.83,3.5-1.47,4.63-2.8,2.33-2.75,8.34-10.88,12.91-8.03ZM145.21,343.85l13.7-9.65,3.51-2.68c-7.61,2.4-15.58,5.85-23.57,4.3-2.25-.44-4.79-1.46-5.62-3.65-2.43-6.47,5.89-14.63,9.99-18.81.92-.94,1.84-1.55,2.51-3.04-9.13,2.11-17.89,4.8-26.3,9.11-14.07,7.2-26.73,16.62-37.49,28.12s-21.67,28.19-17.21,44.49c6.58-2.17,12.66-4.8,18.8-7.93,11.2-5.7,21.76-12.06,32.1-19.17,4.51-3.05,8.73-5.93,12.92-9.33,2.84-2.3,5.67-4.37,8.71-6.41l7.94-5.32ZM231.13,318.28c-.58-1.68-6.27-1.73-7.9-1.22-.45.75-.47,2.6.13,3.14,1.84,1.46,8.56.37,7.78-1.92ZM356.61,335.19c1.51-.95,13.44-7.89,11.79-9.58-1.37-1.41-6.51,2.18-8.05,3.51l-8.12,6.98c-1.34,1.15-2.5,2.32-3.6,3.8,2.96-1.31,5.33-3.03,7.97-4.7ZM259.68,336.48c3.19-1.98,5.95-4.2,8.87-6.5,1.27-1,2.3-1.97,2.6-3.93-1.37-.21-2.72.02-4.09.58-7.85,3.2-15.18,7.06-22.41,11.53l-16.37,10.13c-.5.31-9.08,5.75-7.24,6.53,4.53,1.93,33.15-14.94,38.63-18.35ZM422.34,327.12c.14-.18-.03-.85-.22-.91-3.19-.9-26.26,10.42-30.63,14.36,8.17-.57,26.06-7.57,30.85-13.45ZM451.07,345.7l12.82-7.63,5.67-3.51c1.05-.65,11.24-6.81,9.14-8.22-1.48-.99-9.23,2.39-11.22,3.33-10.82,5.1-21.1,10.93-30.95,17.68-.93.64-8.64,6.2-7.38,7.23,2.03,1.67,18.74-7.01,21.91-8.9ZM341,326.52c-1.76-1.52-12.88,3.83-14.82,4.81-5.58,2.82-11.26,5.37-16.5,9.32,7.5-.56,27.57-7.88,31.32-14.13ZM182.25,361.96c4.11-1.73,7.82-3.54,11.63-5.55l6.66-3.5c1.6-.84,3.07-1.64,4.61-2.61,4.07-2.55,24.89-14.69,21.37-20.48-.66-1.08-2.32-1.47-3.6-1.52-6.16-.26-12.02.95-17.89,2.66-4.9,1.43-9.39,2.93-14.15,4.93-19.46,8.2-37.79,18.58-54.73,31.15-2.74,2.03-5.12,3.94-7.59,6.22.44.64,1.09,1,1.65,1.03l4.04.19c11.56.53,31.78-5.69,42.59-10.24l5.39-2.27ZM427.65,348.2c-8.38,5.18-15.59,7.34-24.25,11.31-26.85,12.3-53.27,19.3-82.13,24.96-1.06,4.74.55,11.02,3.58,14.58,2.82,3.31,6.17,5.64,10.33,6.98,3.03.98,6.23,1.81,9.49,1.89,4.11.1,8.05.25,12.13-.07,20.59-1.62,44.98-10.21,64.08-18.3,26.01-11.02,50.7-24.57,74-40.38,4.4-2.98,3.23-3.33,6.52-8.24.48-.72.89-1.36,1.02-2.23-9.91,5.56-19.62,10.98-29.79,16-2.27,1.12-8.25,3.45-9.81.83-1.48-2.47,3.47-6.37,5.44-8.16-.53.08-1.64.32-2.09.59-4.59,2.74-9.11,5.07-13.96,7.29-2.11.96-7.37,2.82-8.5.38-.28-.6-.19-1.87.16-2.42l2.21-3.48c-6.81,3.01-13.04,6.84-20.21,7.07-1.14.04-2.43-.82-2.23-2.05.17-1.07.84-2.47,1.59-3.22l3.25-3.23-.82-.09ZM112.49,398.96c-9.12-6.35,3.51-19.7,8.48-24.41.19-.18.51-.77.4-.97-.48-.83-3.71-3.14-1.6-7.48l1.97-4.05c-17.87,12.36-35.84,23.81-56.42,31.08,1.52,5.59,7.28,10.04,12.02,12.15,6.68,2.98,13.89,3.76,21.22,3.02,8.31-.85,16.24-2.58,24.42-5.59-3.68-1.41-7.41-1.59-10.5-3.74ZM464.3,394.38c8.31-7.61,14.19-15.06,20.28-25.13-4.9,2.8-9.07,5.75-13.45,8.8-4.73,3.3-9.21,6.55-13.57,10.29-2.82,2.42-5.46,4.81-7.14,8.14-.56,1.1-1.18,2.88-.07,3.8,3.05,2.53,11.3-3.47,13.95-5.89Z"/>
  <path d="M357.13,290.74c-2.05.11-4,.29-5.92.1,3.71-.73,8.11-.67,11.52-.39l-5.6.29Z"/>
</svg>